<svg width="23" height="20" viewBox="0 0 23 20" fill="none" xmlns="http://www.w3.org/2000/svg">
<path d="M22.4444 2.98529C21.6098 3.35142 20.7204 3.5941 19.7932 3.71193C20.7471 3.1424 21.4751 2.24743 21.8174 1.16869C20.928 1.69894 19.9461 2.07349 18.8996 2.2825C18.0552 1.38332 16.8516 0.826416 15.5386 0.826416C12.9911 0.826416 10.9403 2.89411 10.9403 5.42893C10.9403 5.79365 10.9711 6.14435 11.0469 6.47821C7.2215 6.29164 3.8366 4.45821 1.56269 1.66528C1.16571 2.35404 0.932847 3.1424 0.932847 3.99108C0.932847 5.58464 1.75347 6.99724 2.97669 7.81506C2.23743 7.80103 1.51219 7.5864 0.897778 7.24833C0.897778 7.26236 0.897778 7.2806 0.897778 7.29883C0.897778 9.53486 2.49274 11.3921 4.58428 11.82C4.20974 11.9224 3.80153 11.9715 3.37789 11.9715C3.08331 11.9715 2.78592 11.9547 2.50676 11.8929C3.10294 13.7151 4.79469 15.0548 6.80628 15.0983C5.24078 16.3229 3.25304 17.0608 1.10118 17.0608C0.723833 17.0608 0.361917 17.0439 0 16.9976C2.03824 18.312 4.45382 19.0625 7.05878 19.0625C15.5259 19.0625 20.1551 12.0486 20.1551 5.969C20.1551 5.7656 20.1481 5.56921 20.1383 5.37422C21.0515 4.72614 21.8188 3.91674 22.4444 2.98529Z" fill="white"/>
</svg>
