<svg width="15" height="26" viewBox="0 0 15 26" fill="none" xmlns="http://www.w3.org/2000/svg">
<path d="M14.1366 11.1689L3.52414 0.57513C3.34984 0.399389 3.14246 0.2599 2.91397 0.164709C2.68549 0.0695175 2.44041 0.0205078 2.19289 0.0205078C1.94537 0.0205078 1.7003 0.0695175 1.47181 0.164709C1.24332 0.2599 1.03595 0.399389 0.861642 0.57513C0.512422 0.926434 0.316406 1.40166 0.316406 1.897C0.316406 2.39235 0.512422 2.86757 0.861642 3.21888L10.1429 12.5939L0.861642 21.8751C0.512422 22.2264 0.316406 22.7017 0.316406 23.197C0.316406 23.6923 0.512422 24.1676 0.861642 24.5189C1.03529 24.696 1.24238 24.837 1.4709 24.9335C1.69941 25.0301 1.94482 25.0803 2.19289 25.0814C2.44097 25.0803 2.68637 25.0301 2.91489 24.9335C3.14341 24.837 3.35049 24.696 3.52414 24.5189L14.1366 13.9251C14.327 13.7495 14.4789 13.5365 14.5827 13.2993C14.6866 13.0621 14.7403 12.8059 14.7403 12.547C14.7403 12.2881 14.6866 12.0319 14.5827 11.7947C14.4789 11.5576 14.327 11.3445 14.1366 11.1689Z" fill="#0B0B0B"/>
</svg>
