<svg width="15" height="26" viewBox="0 0 15 26" fill="none" xmlns="http://www.w3.org/2000/svg">
<path d="M0.863358 11.1689L11.4759 0.57513C11.6502 0.399389 11.8575 0.2599 12.086 0.164709C12.3145 0.0695175 12.5596 0.0205078 12.8071 0.0205078C13.0546 0.0205078 13.2997 0.0695175 13.5282 0.164709C13.7567 0.2599 13.9641 0.399389 14.1384 0.57513C14.4876 0.926434 14.6836 1.40166 14.6836 1.897C14.6836 2.39235 14.4876 2.86757 14.1384 3.21888L4.85711 12.5939L14.1384 21.8751C14.4876 22.2264 14.6836 22.7017 14.6836 23.197C14.6836 23.6923 14.4876 24.1676 14.1384 24.5189C13.9647 24.696 13.7576 24.837 13.5291 24.9335C13.3006 25.0301 13.0552 25.0803 12.8071 25.0814C12.559 25.0803 12.3136 25.0301 12.0851 24.9335C11.8566 24.837 11.6495 24.696 11.4759 24.5189L0.863358 13.9251C0.673036 13.7495 0.521145 13.5365 0.417255 13.2993C0.313367 13.0621 0.259733 12.8059 0.259733 12.547C0.259733 12.2881 0.313367 12.0319 0.417255 11.7947C0.521145 11.5576 0.673036 11.3445 0.863358 11.1689Z" fill="#0B0B0B"/>
</svg>
